<?xml version="1.0" encoding="iso-8859-1"?>
<!-- Generator: Adobe Illustrator 17.1.0, SVG Export Plug-In . SVG Version: 6.00 Build 0)  -->
<!DOCTYPE svg PUBLIC "-//W3C//DTD SVG 1.1//EN" "http://www.w3.org/Graphics/SVG/1.1/DTD/svg11.dtd">
<svg version="1.1" id="Capa_1" xmlns="http://www.w3.org/2000/svg" xmlns:xlink="http://www.w3.org/1999/xlink" x="0px" y="0px"
	 viewBox="0 0 370.021 370.021" style="enable-background:new 0 0 370.021 370.021;" xml:space="preserve">
<path d="M276.022,39.163h-22.087V20c0-11.028-8.972-20-20-20h-97.85c-11.028,0-20,8.972-20,20v19.163H93.999
	c-16.542,0-30,13.458-30,30v270.858c0,16.542,13.458,30,30,30h182.023c16.542,0,30-13.458,30-30V69.163
	C306.022,52.621,292.564,39.163,276.022,39.163z M236.011,207.011h-12.227v46.074h-23.773v52.926h-30v-52.926h-24.812v-46.074
	h-11.188v-31h18v-37h26v37h14v-37h26v37h18V207.011z M276.022,94.78H93.999V69.163h182.023V94.78L276.022,94.78z"/>
<g>
</g>
<g>
</g>
<g>
</g>
<g>
</g>
<g>
</g>
<g>
</g>
<g>
</g>
<g>
</g>
<g>
</g>
<g>
</g>
<g>
</g>
<g>
</g>
<g>
</g>
<g>
</g>
<g>
</g>
</svg>
