<?xml version="1.0" encoding="iso-8859-1"?>
<!-- Generator: Adobe Illustrator 17.1.0, SVG Export Plug-In . SVG Version: 6.00 Build 0)  -->
<!DOCTYPE svg PUBLIC "-//W3C//DTD SVG 1.1//EN" "http://www.w3.org/Graphics/SVG/1.1/DTD/svg11.dtd">
<svg version="1.1" id="Capa_1" xmlns="http://www.w3.org/2000/svg" xmlns:xlink="http://www.w3.org/1999/xlink" x="0px" y="0px"
	 viewBox="0 0 347.021 347.021" style="enable-background:new 0 0 347.021 347.021;" xml:space="preserve">
<path d="M334.021,109.586h-13.163V85.499c0-9.925-8.075-18-18-18H18c-9.925,0-18,8.075-18,18v176.023c0,9.925,8.075,18,18,18
	h284.858c9.925,0,18-8.075,18-18v-24.087h13.163c7.168,0,13-5.832,13-13v-101.85C347.021,115.418,341.19,109.586,334.021,109.586z
	 M92.772,212.043H68.326v-77.064h24.446V212.043z M273.079,185.047h-25.163v25.163h-23.072v-25.163h-25.163v-23.072h25.163v-25.163
	h23.072v25.163h25.163V185.047z"/>
<g>
</g>
<g>
</g>
<g>
</g>
<g>
</g>
<g>
</g>
<g>
</g>
<g>
</g>
<g>
</g>
<g>
</g>
<g>
</g>
<g>
</g>
<g>
</g>
<g>
</g>
<g>
</g>
<g>
</g>
</svg>
