<?xml version="1.0" encoding="iso-8859-1"?>
<!-- Generator: Adobe Illustrator 17.1.0, SVG Export Plug-In . SVG Version: 6.00 Build 0)  -->
<!DOCTYPE svg PUBLIC "-//W3C//DTD SVG 1.1//EN" "http://www.w3.org/Graphics/SVG/1.1/DTD/svg11.dtd">
<svg version="1.1" id="Capa_1" xmlns="http://www.w3.org/2000/svg" xmlns:xlink="http://www.w3.org/1999/xlink" x="0px" y="0px"
	 viewBox="0 0 370.021 370.021" style="enable-background:new 0 0 370.021 370.021;" xml:space="preserve">
<g>
	<path d="M276.022,39.163h-22.086V20c0-11.028-8.972-20-20-20h-97.85c-11.028,0-20,8.972-20,20v19.163H94c-16.542,0-30,13.458-30,30
		v270.858c0,16.542,13.458,30,30,30h182.022c16.542,0,30-13.458,30-30V69.163C306.022,52.621,292.564,39.163,276.022,39.163z
		 M185.011,279.991c-34.706,0-62.841-28.135-62.841-62.841s28.135-62.841,62.841-62.841s62.841,28.135,62.841,62.841
		S219.717,279.991,185.011,279.991z M276.022,94.78H94V69.163h182.022V94.78C276.022,94.78,276.022,94.78,276.022,94.78z"/>
	<polygon points="197.234,177.117 172.788,177.117 172.788,204.926 144.979,204.926 144.979,229.373 172.788,229.373 
		172.788,257.182 197.234,257.182 197.234,229.373 225.043,229.373 225.043,204.926 197.234,204.926 	"/>
</g>
<g>
</g>
<g>
</g>
<g>
</g>
<g>
</g>
<g>
</g>
<g>
</g>
<g>
</g>
<g>
</g>
<g>
</g>
<g>
</g>
<g>
</g>
<g>
</g>
<g>
</g>
<g>
</g>
<g>
</g>
</svg>
