<?xml version="1.0" encoding="iso-8859-1"?>
<!-- Generator: Adobe Illustrator 17.1.0, SVG Export Plug-In . SVG Version: 6.00 Build 0)  -->
<!DOCTYPE svg PUBLIC "-//W3C//DTD SVG 1.1//EN" "http://www.w3.org/Graphics/SVG/1.1/DTD/svg11.dtd">
<svg version="1.1" id="Capa_1" xmlns="http://www.w3.org/2000/svg" xmlns:xlink="http://www.w3.org/1999/xlink" x="0px" y="0px"
	 viewBox="0 0 386.756 386.756" style="enable-background:new 0 0 386.756 386.756;" xml:space="preserve">
<path d="M317.386,192.796c-4.645-10.74-11.147-16.187-19.329-16.187c-2.758,0-5.495,0.705-7.915,2.038
	c-3.979,2.192-10.34,5.396-23.577,11.302V65.973c0-16.542-13.458-30-30-30H217.21V20c0-11.028-8.972-20-20-20H130.1
	c-11.028,0-20,8.972-20,20v15.973H90.744c-16.542,0-30,13.458-30,30v251.333c0,16.542,13.458,30,30,30h12.728
	c0.406,6.013,1.154,10.551,1.646,13.054c3.445,17.516,10.592,26.396,21.243,26.396c2.063,0,4.082-0.389,5.999-1.155
	c9.504-3.802,26.226-5.496,43.93-7.291c37.984-3.85,85.259-8.642,113.136-38.29c26.182-27.845,34.019-60.753,35.982-83.456
	C327.815,228.758,322.59,204.834,317.386,192.796z M90.744,65.973h145.82l0,22.656h0H90.744V65.973z M267.57,319.469
	c-20.199,21.482-59.57,25.473-94.306,28.994c-6.311,0.639-12.34,1.258-18.079,1.953c9.615-13.451,24.305-29.2,59.788-35.851
	c8.143-1.526,13.506-9.364,11.979-17.507c-1.526-8.142-9.359-13.504-17.507-11.979c-43.124,8.083-63.633,27.936-75.835,44.021
	c0.679-6.731,2.122-14.071,4.764-21.646c8.538-24.474,26.506-42.464,53.407-53.471c58.199-23.813,85.686-35.806,100.314-42.738
	C297.722,231.955,302.248,282.588,267.57,319.469z"/>
<g>
</g>
<g>
</g>
<g>
</g>
<g>
</g>
<g>
</g>
<g>
</g>
<g>
</g>
<g>
</g>
<g>
</g>
<g>
</g>
<g>
</g>
<g>
</g>
<g>
</g>
<g>
</g>
<g>
</g>
</svg>
