<?xml version="1.0" encoding="iso-8859-1"?>
<!-- Generator: Adobe Illustrator 17.1.0, SVG Export Plug-In . SVG Version: 6.00 Build 0)  -->
<!DOCTYPE svg PUBLIC "-//W3C//DTD SVG 1.1//EN" "http://www.w3.org/Graphics/SVG/1.1/DTD/svg11.dtd">
<svg version="1.1" id="Capa_1" xmlns="http://www.w3.org/2000/svg" xmlns:xlink="http://www.w3.org/1999/xlink" x="0px" y="0px"
	 viewBox="0 0 370.021 370.021" style="enable-background:new 0 0 370.021 370.021;" xml:space="preserve">
<path d="M316.955,123.629c-2.992,0-5.931,0.842-8.494,2.433c-3.388,2.101-8.396,3.258-14.102,3.258
	c-4.689,0-9.593-0.764-14.574-2.271c-6.558-1.983-14.272-9.038-22.919-20.952c-0.485-0.669-1.025-1.29-1.605-1.867V69.163
	c0-16.542-13.458-30-30-30h-22.087V20c0-11.028-8.972-20-20-20h-73.85c-11.028,0-20,8.972-20,20v19.163H67.237
	c-16.542,0-30,13.458-30,30v270.858c0,16.542,13.458,30,30,30h158.023c16.542,0,30-13.458,30-30v-20.928
	c2.232-1.083,4.883-2.466,8.056-4.234c6.685-3.727,16.892-9.925,27.566-18.294c27.412-21.495,41.901-44.968,41.901-67.882v-88.831
	C332.784,130.755,325.831,123.629,316.955,123.629z M67.237,69.163h158.023l0,25.616h0H67.237V69.163z M302.784,228.684
	c0,27.87-45.08,55.972-60.328,63.324c-14.547-6.713-59.672-34.472-59.672-63.324v-70.083c3.302,0.477,6.746,0.719,10.298,0.719
	c7.927,0,15.9-1.196,23.7-3.556c10.88-3.291,19.929-10.47,27.176-18.135c7.256,7.666,16.307,14.857,27.141,18.135
	c7.801,2.359,15.627,3.556,23.261,3.556c2.881,0,5.695-0.172,8.425-0.511V228.684z"/>
<g>
</g>
<g>
</g>
<g>
</g>
<g>
</g>
<g>
</g>
<g>
</g>
<g>
</g>
<g>
</g>
<g>
</g>
<g>
</g>
<g>
</g>
<g>
</g>
<g>
</g>
<g>
</g>
<g>
</g>
</svg>
